<?xml version="1.0" standalone="no"?>
<!DOCTYPE svg PUBLIC "-//W3C//DTD SVG 20010904//EN"
 "http://www.w3.org/TR/2001/REC-SVG-20010904/DTD/svg10.dtd">
<svg version="1.0" xmlns="http://www.w3.org/2000/svg"
 width="1024.000000pt" height="1024.000000pt" viewBox="0 0 1024.000000 1024.000000"
 preserveAspectRatio="xMidYMid meet">
<metadata>
Created by potrace 1.14, written by Peter Selinger 2001-2017
</metadata>
<g transform="translate(0.000000,1024.000000) scale(0.100000,-0.100000)"
fill="#000000" stroke="none">
<path d="M0 5120 l0 -5120 5120 0 5120 0 0 5120 0 5120 -5120 0 -5120 0 0
-5120z m5299 3835 c95 -52 143 -133 147 -250 3 -79 3 -79 -7 -25 -25 143 -112
241 -227 256 l-37 5 31 -14 c48 -23 105 -78 125 -122 24 -53 25 -149 2 -193
-32 -57 -82 -101 -134 -116 -43 -13 -55 -13 -99 0 -98 29 -151 105 -151 217 0
36 6 80 14 98 14 33 80 101 108 111 8 3 11 8 8 12 -12 13 -112 -48 -141 -88
-38 -52 -47 -75 -63 -161 l-13 -70 -1 71 c-2 147 70 250 209 295 14 5 59 7
100 6 61 -3 86 -9 129 -32z m-2349 -119 c0 -2 -26 -20 -57 -41 -100 -66 -333
-244 -432 -330 -95 -82 -241 -227 -315 -315 l-39 -45 28 50 c57 101 151 229
223 306 139 148 269 239 472 330 102 46 120 53 120 45z m1787 -63 c-4 -38 -7
-82 -7 -99 l0 -31 -77 -7 c-492 -43 -1141 -209 -1547 -396 -49 -22 -89 -40
-89 -40 -1 0 -1 49 1 109 l3 109 92 42 c412 192 1153 371 1561 379 l69 1 -6
-67z m1038 52 c499 -58 1012 -190 1398 -360 l107 -47 0 -109 0 -108 -82 35
c-441 190 -923 318 -1450 385 l-178 23 0 52 c0 28 -3 72 -6 98 l-7 46 44 0
c24 0 103 -7 174 -15z m1721 -50 c75 -36 175 -91 222 -122 159 -107 345 -313
441 -488 l33 -60 -34 40 c-148 180 -420 415 -730 632 -71 50 -86 63 -73 63 2
0 66 -29 141 -65z m-2297 -404 c88 85 96 77 27 -28 -34 -54 -65 -104 -67 -111
-4 -13 -129 187 -129 205 0 4 27 -19 60 -52 l61 -61 48 47z m-194 -134 c24
-20 67 -69 96 -109 47 -62 54 -69 64 -53 49 86 199 235 237 235 5 0 -16 -30
-45 -67 -58 -72 -133 -185 -178 -267 l-27 -49 -17 34 c-21 42 -174 271 -212
318 l-28 35 34 -20 c18 -10 53 -36 76 -57z m-115 -125 c70 -64 143 -164 221
-304 l42 -77 66 115 c76 133 151 230 228 294 83 69 93 69 33 1 -109 -125 -172
-208 -245 -325 -41 -65 -75 -123 -75 -129 0 -6 -34 43 -75 108 -96 150 -168
244 -258 342 -56 60 -65 72 -39 57 18 -10 64 -47 102 -82z m-642 53 c241 -42
408 -123 567 -276 116 -112 253 -310 311 -451 10 -27 21 -48 24 -48 3 1 21 35
40 78 57 126 183 306 290 413 147 149 300 228 530 275 155 32 167 30 85 -14
-181 -98 -301 -186 -431 -316 -55 -56 -118 -128 -140 -161 -43 -64 -114 -189
-114 -200 0 -4 16 7 35 23 19 17 62 50 96 73 61 41 262 160 265 156 3 -4 -46
-232 -61 -283 -38 -130 -113 -257 -240 -404 -69 -79 -127 -185 -144 -260 -12
-52 -13 -174 -1 -210 7 -21 8 -22 9 -5 3 44 54 126 143 227 101 116 139 181
195 337 18 52 36 97 40 100 15 15 -9 -253 -32 -354 -60 -257 -66 -297 -74
-515 -9 -212 -25 -345 -42 -334 -5 3 -9 20 -9 37 -1 45 -48 268 -49 232 -1
-16 -3 -64 -4 -105 -2 -62 -9 -89 -40 -158 -20 -46 -34 -88 -31 -94 4 -7 2 -8
-4 -4 -6 4 -18 -5 -26 -21 -14 -26 -15 -20 -15 102 1 144 -8 183 -59 257 -105
153 -302 154 -418 2 -52 -69 -67 -132 -65 -264 4 -155 6 -182 20 -207 6 -12
11 -28 10 -35 0 -9 -2 -8 -6 2 -4 8 -16 31 -27 50 -27 43 -47 90 -40 90 3 0
11 -15 19 -32 13 -30 14 -31 15 -9 0 13 -11 43 -24 65 -13 23 -37 84 -54 136
-27 83 -30 106 -26 180 l4 85 -15 -60 c-8 -33 -20 -91 -26 -130 -6 -38 -13
-86 -16 -105 l-6 -35 -14 55 c-8 32 -17 154 -23 290 -9 228 -10 241 -55 435
-36 154 -47 228 -52 320 -3 66 -3 118 0 115 3 -3 17 -40 31 -83 49 -145 107
-244 225 -378 63 -71 111 -155 111 -193 0 -16 3 -17 12 -8 9 9 13 45 12 110
-1 149 -48 254 -186 413 -130 150 -179 246 -228 444 -17 72 -35 145 -40 163
-6 22 -5 32 3 32 19 0 319 -189 356 -223 30 -29 33 -30 26 -9 -4 13 -25 56
-47 95 -121 214 -357 423 -643 570 -78 40 -69 44 53 22z m-608 -29 c0 -2 -7
-7 -16 -10 -8 -3 -12 -2 -9 4 6 10 25 14 25 6z m134 -69 c3 4 6 2 6 -4 0 -5
17 -18 38 -29 20 -10 39 -21 42 -24 5 -5 108 -75 139 -95 8 -5 20 -15 26 -21
5 -6 44 -38 85 -71 41 -33 102 -86 135 -118 l60 -57 -80 43 c-127 67 -364 216
-435 274 -62 50 -160 142 -160 150 0 16 44 5 86 -22 29 -17 54 -29 58 -26z
m2885 46 c0 -5 -36 -40 -78 -78 -114 -105 -360 -266 -531 -349 l-55 -27 68 66
c117 113 335 266 521 364 60 32 77 37 75 24z m1852 -536 c51 -101 102 -254
128 -386 29 -144 27 -189 -4 -84 -14 45 -31 97 -38 115 -13 32 -14 31 -20 -57
-8 -109 -42 -253 -95 -400 -44 -122 -90 -230 -96 -224 -2 2 4 45 14 94 42 208
54 352 55 635 0 151 -3 309 -7 350 -7 69 -7 73 8 55 9 -11 34 -55 55 -98z
m-6665 58 c-13 -85 -8 -507 9 -667 13 -133 37 -297 60 -416 11 -53 -67 125
-110 253 -47 138 -85 306 -85 373 0 23 -4 44 -10 47 -5 3 -10 0 -10 -7 0 -7
-16 -60 -34 -118 -30 -90 -34 -98 -29 -55 13 137 60 321 113 450 41 98 87 185
97 185 3 0 2 -20 -1 -45z m1148 -438 c17 -18 103 -88 191 -156 154 -120 203
-161 189 -161 -3 0 -26 14 -51 30 -24 17 -47 30 -50 30 -26 0 -290 229 -314
273 -15 27 1 20 35 -16z m4247 -76 c-23 -43 -261 -214 -277 -199 -4 4 275 218
284 218 1 0 -2 -8 -7 -19z m-5702 -304 c11 -31 9 -54 -8 -146 -39 -202 -52
-335 -57 -561 l-5 -225 -57 -115 c-32 -63 -69 -140 -83 -170 l-24 -55 -3 140
c-9 379 39 815 139 1275 l12 55 37 -80 c20 -44 43 -97 49 -118z m7325 106
c101 -451 141 -803 134 -1188 l-3 -180 -28 60 c-16 33 -53 109 -83 168 l-54
108 0 170 c0 200 -9 300 -51 546 l-31 182 43 106 c24 57 47 105 50 105 3 0 13
-35 23 -77z m-6150 -36 c51 -123 134 -288 195 -386 104 -168 187 -266 412
-482 150 -145 270 -272 372 -394 83 -99 160 -191 171 -205 26 -31 23 -28 -159
115 -82 65 -188 155 -234 199 -120 117 -284 296 -276 304 3 4 9 2 13 -4 6 -9
172 -158 232 -208 13 -12 -48 55 -137 147 -89 92 -199 214 -244 270 -176 218
-318 467 -364 639 -35 132 -34 133 19 5z m4866 -59 c-17 -65 -24 -82 -78 -187
-106 -207 -275 -430 -509 -673 -62 -64 -113 -120 -113 -124 0 -5 54 45 121
111 139 138 140 115 1 -40 -155 -174 -288 -294 -522 -470 -46 -34 -57 -40 -39
-19 14 16 92 108 174 204 82 97 250 277 380 405 135 134 258 266 295 315 78
107 187 290 246 414 25 53 47 96 49 96 1 0 -1 -15 -5 -32z m-4197 -12 c172
-110 703 -386 743 -386 6 0 17 -7 24 -15 19 -23 -7 -19 -97 14 -178 66 -408
182 -548 276 -154 103 -260 199 -122 111z m3537 -16 c-118 -95 -317 -211 -490
-286 -125 -53 -300 -115 -300 -105 0 5 84 48 188 95 177 83 576 287 597 307 5
5 14 9 20 9 5 0 -1 -9 -15 -20z m-1652 -499 c63 -40 79 -77 63 -152 -6 -27
-11 -90 -11 -140 0 -132 -25 -241 -105 -454 -41 -110 -46 -148 -11 -92 35 57
43 59 12 2 -38 -66 -63 -94 -70 -74 -3 8 -30 84 -62 169 -79 218 -95 280 -99
395 -3 55 -7 143 -11 195 l-6 96 38 33 c54 48 91 62 155 58 43 -2 68 -11 107
-36z m2910 -328 c-165 -276 -283 -461 -373 -587 -77 -109 -281 -347 -304 -354
-17 -6 -20 -11 110 154 109 139 197 271 377 564 79 129 160 258 180 285 46 65
124 155 133 155 4 0 -51 -98 -123 -217z m-6005 -5 c42 -62 133 -205 202 -318
137 -221 278 -424 372 -534 88 -104 94 -118 19 -46 -146 140 -315 365 -499
665 -30 50 -103 168 -161 263 -58 95 -106 176 -106 180 1 18 106 -109 173
-210z m3239 -130 c-8 -8 -9 -4 -5 13 4 13 8 18 11 10 2 -7 -1 -18 -6 -23z m38
12 c0 -5 -5 -10 -11 -10 -5 0 -7 5 -4 10 3 6 8 10 11 10 2 0 4 -4 4 -10z m-85
-149 c-22 -44 -27 -38 -7 9 9 21 18 35 20 30 2 -5 -4 -22 -13 -39z m-102 -166
c-3 -9 -8 -14 -10 -11 -3 3 -2 9 2 15 9 16 15 13 8 -4z m83 -384 c107 -50 154
-105 154 -181 0 -74 -82 -176 -199 -246 l-76 -45 45 38 c71 58 113 106 139
154 l23 44 -32 -38 c-17 -21 -51 -47 -73 -58 l-42 -21 30 33 c17 18 36 38 43
44 7 6 12 15 11 20 -2 9 15 57 27 76 3 5 -2 6 -10 3 -9 -3 -16 -14 -16 -24 0
-18 -72 -90 -90 -90 -18 0 6 35 45 64 39 30 42 47 3 23 -12 -8 -34 -18 -48
-22 -14 -4 -37 -16 -52 -26 -54 -38 -62 -22 -16 32 80 94 118 162 58 104 -16
-16 -30 -25 -30 -20 0 4 -8 1 -17 -7 -26 -21 -95 -59 -100 -55 -2 3 15 16 39
30 24 14 54 37 67 51 17 18 27 22 32 15 4 -8 11 -3 20 12 11 22 11 23 -4 10
-11 -8 -17 -9 -17 -2 0 7 -8 8 -26 1 -14 -6 -39 -10 -55 -10 -17 0 -43 -7 -60
-15 -27 -15 -119 -37 -119 -29 0 2 28 17 63 34 74 37 95 55 52 44 -16 -4 -32
-10 -35 -14 -5 -7 -77 -40 -87 -40 -2 0 -1 4 2 10 11 17 -117 -60 -169 -102
l-51 -42 35 39 c19 21 40 44 45 50 27 29 127 97 185 124 36 17 57 31 48 31
-37 0 -134 -45 -209 -96 -87 -59 -102 -58 -36 3 118 109 183 135 328 130 94
-3 113 -7 175 -36z m-1312 -113 c110 -36 211 -100 238 -151 7 -14 -7 -5 -36
21 -26 24 -75 56 -109 72 -83 38 -124 47 -62 14 52 -28 105 -68 117 -89 4 -7
-20 2 -55 21 -126 67 -210 94 -284 93 l-68 -2 60 -8 c33 -4 80 -15 105 -24 43
-15 130 -62 130 -70 0 -2 -29 10 -65 26 -77 35 -173 59 -235 59 -38 0 -145
-22 -155 -32 -2 -2 25 -3 60 -3 36 0 57 3 47 7 -30 12 48 9 88 -3 21 -6 51
-22 66 -35 l29 -23 -60 24 c-69 28 -122 34 -62 7 l39 -17 -94 0 c-81 0 -101
-4 -155 -29 -80 -36 -104 -62 -34 -35 52 19 120 24 156 10 14 -6 5 -9 -34 -14
-84 -10 -175 -57 -213 -111 -17 -25 -34 -44 -36 -41 -7 7 29 108 61 168 17 32
50 76 74 97 105 92 321 122 487 68z m2584 17 c77 -18 146 -53 193 -97 19 -18
28 -28 20 -22 -91 65 -307 113 -461 101 -144 -11 -247 -48 -344 -122 -64 -49
-69 -38 -8 16 101 92 242 138 422 138 68 1 141 -5 178 -14z m-1403 -14 c-11
-10 -31 -22 -45 -26 -18 -4 -13 1 15 18 49 31 55 32 30 8z m420 -71 c47 -93
57 -236 23 -348 -12 -41 -13 -33 -14 105 0 154 0 155 -59 298 -17 40 25 -6 50
-55z m-923 37 c-6 -7 -22 -47 -36 -89 -39 -114 -36 -236 9 -423 14 -58 -13
-12 -35 60 -30 100 -38 257 -16 327 21 63 63 138 78 138 7 0 7 -4 0 -13z
m2003 -90 c44 -21 95 -50 113 -64 30 -22 33 -30 28 -57 -15 -72 -138 -216
-219 -255 -26 -13 -50 -21 -53 -19 -2 3 21 22 51 42 84 58 161 151 97 117 -26
-14 -52 -14 -52 -1 0 5 6 9 13 7 6 -1 11 4 9 12 -2 8 3 11 12 8 9 -4 15 -3 14
1 -2 4 5 18 14 32 9 14 19 36 23 50 7 23 7 24 -16 9 -13 -9 -42 -22 -64 -29
-22 -7 -55 -21 -73 -31 -19 -11 -38 -17 -43 -13 -12 7 -2 41 23 77 11 16 18
30 16 32 -2 2 -30 -5 -62 -16 -130 -43 -130 -14 1 38 53 21 89 39 79 41 -40 8
-154 -21 -215 -54 -35 -19 -66 -33 -68 -30 -3 2 8 11 24 20 42 21 58 42 38 50
-8 3 -15 0 -15 -7 -1 -7 -6 -5 -14 5 -12 17 -17 16 -83 -6 -38 -13 -84 -31
-102 -40 -49 -26 -49 -12 1 22 118 80 192 103 333 99 104 -2 114 -4 190 -40z
m-1901 -54 c-26 -32 -48 -60 -50 -62 -2 -2 -4 0 -4 6 0 10 87 113 96 113 2 0
-17 -26 -42 -57z m2668 -13 c97 -33 187 -95 217 -150 32 -57 41 -186 18 -240
l-15 -35 -1 28 c-1 30 -38 136 -70 199 l-19 38 35 -27 c19 -14 41 -36 49 -47
27 -39 14 0 -18 54 -20 31 -52 67 -80 86 -66 45 -199 91 -315 108 l-98 15 115
-3 c87 -3 131 -9 182 -26z m-4242 0 c-8 -5 -40 -10 -70 -11 -30 -1 -68 -5 -85
-9 -24 -6 -16 -8 35 -9 64 -2 152 -20 166 -34 4 -4 -42 -7 -103 -7 -114 0
-204 -18 -233 -47 -13 -13 -9 -14 35 -7 28 3 47 4 44 0 -5 -6 -68 -14 -124
-16 -45 -2 12 -18 88 -25 42 -4 77 -10 77 -15 0 -4 21 -13 48 -20 52 -13 94
-31 88 -37 -2 -3 -38 1 -80 8 -121 20 -309 -11 -389 -65 -20 -14 -39 -22 -41
-17 -3 4 4 14 15 22 55 38 56 39 19 29 -88 -25 -160 -112 -160 -195 0 -23 7
-64 15 -90 18 -61 13 -69 -9 -15 -9 22 -16 68 -16 103 1 112 56 196 165 248
69 33 59 38 -21 9 -68 -23 -115 -58 -155 -113 -35 -48 -38 -35 -7 31 57 120
278 253 473 282 77 12 243 12 225 0z m503 -57 c-7 -2 -19 -2 -25 0 -7 3 -2 5
12 5 14 0 19 -2 13 -5z m-78 -14 c-51 -10 -92 -10 -50 1 17 4 44 8 60 8 25 0
24 -2 -10 -9z m1828 -36 c33 -65 45 -127 52 -263 9 -152 -6 -257 -56 -407 -23
-68 -39 -126 -36 -129 2 -3 21 37 42 88 20 51 41 98 47 103 9 10 9 5 -8 -102
-14 -88 -112 -208 -216 -263 -54 -29 -73 -34 -133 -34 -112 -1 -117 2 -170
101 -26 49 -67 147 -92 218 -50 144 -58 215 -30 258 15 24 21 25 74 20 43 -3
54 -2 43 6 -9 6 -10 11 -3 11 6 0 25 -21 42 -47 37 -56 40 -100 10 -153 -15
-26 -19 -44 -14 -57 10 -21 12 -29 14 -44 0 -6 7 -9 14 -6 7 3 21 -1 32 -9 25
-19 50 -18 66 3 8 9 33 25 57 35 58 26 49 42 -24 43 l-59 0 -8 110 c-4 61 -5
131 -2 156 l5 45 -74 18 c-73 17 -106 38 -106 67 0 10 45 35 123 69 160 70
264 122 306 154 l35 26 29 -27 30 -28 -7 27 c-3 14 -9 33 -12 42 -13 35 7 13
29 -31z m-248 27 c-3 -5 -12 -10 -18 -10 -7 0 -6 4 3 10 19 12 23 12 15 0z
m-1698 -16 c-3 -3 -12 -4 -19 -1 -8 3 -5 6 6 6 11 1 17 -2 13 -5z m-38 -8
c-10 -9 -69 -36 -69 -32 0 7 52 35 64 36 5 0 7 -2 5 -4z m503 -20 c50 -21 60
-39 66 -115 l4 -68 -33 -6 c-173 -29 -179 -30 -179 -46 0 -39 22 -90 45 -105
24 -16 25 -16 22 6 -3 28 33 37 53 13 7 -8 27 -15 44 -15 22 0 27 3 17 9 -11
7 -10 11 7 20 32 17 42 13 42 -15 0 -22 4 -25 21 -21 21 6 22 4 15 -63 -11
-123 -93 -340 -151 -403 -55 -59 -173 -96 -243 -78 -42 12 -121 81 -146 129
-8 16 -26 69 -40 119 -14 50 -39 126 -56 169 -45 117 -74 321 -52 360 9 16 12
10 12 -31 1 -53 22 -185 37 -222 5 -13 7 37 5 122 -4 132 -2 145 16 163 25 25
130 65 154 59 10 -3 16 -1 12 4 -3 5 14 9 38 10 24 0 63 4 88 8 74 14 165 12
202 -3z m2881 -65 c12 -12 28 -132 22 -163 -12 -52 -30 -30 -51 60 -12 48 -25
96 -29 106 -7 17 -5 18 21 12 16 -4 33 -11 37 -15z m-83 -128 l0 -63 -107 0
c-60 0 -119 -3 -133 -6 -35 -9 -14 9 30 26 40 16 110 61 159 103 42 36 51 26
51 -60z m820 26 c0 24 19 9 30 -25 12 -36 7 -84 -9 -84 -5 0 -13 15 -16 33 -4
17 -16 50 -27 72 l-19 40 21 -24 c11 -13 20 -18 20 -12z m-2984 -104 c19 -34
23 -46 10 -36 -19 16 -46 63 -46 82 0 16 1 14 36 -46z m2837 25 c35 -11 80
-32 100 -47 19 -16 42 -32 51 -38 12 -7 18 -33 23 -101 6 -89 5 -92 -17 -99
-16 -5 -33 1 -64 23 -98 70 -196 107 -196 72 0 -5 -7 -10 -15 -10 -8 0 -15 7
-15 16 0 10 -6 14 -14 11 -10 -4 -13 2 -11 21 2 15 -4 36 -13 46 -16 18 -16
19 1 13 12 -5 17 -1 17 12 0 11 -6 21 -12 24 -10 3 -9 13 4 40 16 33 22 37 57
37 21 0 68 -9 104 -20z m-2673 -187 c11 -59 18 -109 16 -110 -2 -2 -15 29 -30
69 -27 77 -47 164 -45 207 1 51 39 -53 59 -166z m2200 172 c7 -8 8 -15 2 -15
-5 0 -15 7 -22 15 -7 8 -8 15 -2 15 5 0 15 -7 22 -15z m-1338 -78 c-4 -84 -69
-287 -92 -287 -16 0 -18 29 -3 56 48 88 51 96 46 129 -4 23 0 43 11 59 9 14
16 40 16 58 l0 32 -30 -34 c-39 -47 -38 -28 2 22 28 36 32 38 41 22 6 -10 9
-35 9 -57z m1234 37 c20 -5 22 -11 17 -67 -10 -134 -28 -176 -83 -192 -24 -7
-25 -7 -7 12 20 23 37 111 37 196 0 59 1 60 36 51z m-528 -141 c2 -73 0 -133
-5 -133 -23 0 -52 34 -61 72 -15 62 -25 174 -17 188 4 6 23 10 43 8 l37 -3 3
-132z m257 37 l1 -99 -50 -21 c-27 -11 -50 -19 -52 -18 -1 2 -5 56 -8 121 l-5
117 57 0 57 0 0 -100z m161 78 c-3 -13 -8 -50 -11 -83 -10 -89 -25 -145 -41
-145 -11 0 -14 21 -14 94 0 135 6 156 41 156 25 0 29 -3 25 -22z m328 -20 c59
-48 86 -116 85 -213 0 -44 -5 -93 -12 -109 -11 -25 -12 -20 -9 48 6 109 -2
134 -63 215 -74 97 -74 119 -1 59z m-2474 -12 c11 -19 23 -59 27 -88 3 -29 14
-70 24 -90 22 -44 24 -78 5 -78 -22 0 -75 151 -89 253 -7 46 5 47 33 3z
m-1256 -75 c9 -41 27 -92 41 -113 25 -38 48 -88 41 -88 -10 0 -85 131 -95 166
-11 38 -15 122 -7 113 3 -2 12 -38 20 -78z m2727 12 c6 -16 13 -48 15 -73 2
-25 1 -36 -2 -25 -17 68 -37 105 -55 105 -11 0 -17 5 -14 10 13 20 45 10 56
-17z m-3176 3 c-17 -12 -18 -15 -3 -30 9 -9 27 -16 40 -16 16 0 19 -3 10 -9
-11 -6 -10 -10 3 -15 13 -5 15 -9 6 -20 -9 -10 -8 -15 2 -19 45 -17 88 -220
66 -308 -8 -31 -16 -45 -21 -37 -5 8 -8 -1 -9 -22 0 -33 -17 -88 -18 -62 -1 6
-5 12 -11 12 -5 0 -10 -18 -10 -40 l0 -40 -25 16 c-22 14 -32 14 -95 2 -38 -8
-70 -11 -70 -7 0 5 11 20 25 35 29 31 30 37 10 54 -12 10 -15 10 -15 -3 0 -17
-100 -60 -112 -49 -4 4 -4 49 -1 101 l6 93 33 -5 c19 -3 36 -2 39 3 3 5 30 17
61 27 32 10 53 22 50 28 -2 7 23 38 56 69 69 66 67 80 -11 70 -52 -7 -103 -35
-208 -115 -41 -31 -44 -32 -62 -15 -25 23 -60 104 -67 159 -6 41 -5 44 33 69
97 64 155 83 258 86 53 2 57 1 40 -12z m4507 -221 c118 -26 119 -26 132 28 13
56 42 26 80 -83 9 -25 16 -57 16 -72 0 -25 -4 -28 -32 -28 -22 0 -28 3 -20 9
10 6 4 13 -21 25 -38 18 -87 21 -87 6 0 -21 24 -60 42 -65 30 -10 21 -19 -46
-47 -60 -24 -66 -25 -80 -9 -36 40 -55 107 -62 216 l-7 110 32 -42 c17 -24 41
-45 53 -48z m-837 55 c-10 -11 -15 -28 -12 -40 8 -29 -8 -25 -22 7 -11 23 -10
29 5 40 10 7 24 13 32 13 12 0 12 -4 -3 -20z m-445 -90 c0 -19 -49 21 -69 56
-29 49 -27 49 24 -2 25 -24 45 -49 45 -54z m1320 85 c-14 -16 -40 -20 -40 -6
0 10 17 19 39 20 11 1 11 -2 1 -14z m-715 -51 c28 7 28 11 3 -88 -24 -96 -99
-210 -159 -241 -67 -35 -159 -12 -265 69 -86 64 -89 69 -68 101 17 25 17 28 1
37 -13 7 -17 23 -17 61 0 72 6 78 60 65 63 -14 104 -12 155 11 l45 20 0 -29
c0 -54 88 -80 127 -37 27 29 32 48 21 71 -7 12 3 8 30 -14 32 -25 47 -31 67
-26z m-1950 -192 c-6 -7 -42 70 -59 127 -31 104 -15 95 24 -14 22 -60 38 -111
35 -113z m-203 140 c-23 -15 -71 -56 -106 -91 -51 -49 -68 -74 -80 -114 -9
-29 -27 -74 -41 -101 -29 -56 -32 -119 -10 -181 18 -48 18 -48 5 -40 -24 15
-63 112 -68 170 -4 54 -1 66 31 125 19 36 37 77 41 91 6 29 92 96 179 141 70
37 104 37 49 0z m1121 -2 c92 -52 164 -116 172 -151 4 -17 21 -55 38 -83 25
-42 30 -61 29 -108 -2 -52 -28 -143 -52 -178 -8 -11 -9 -4 -3 25 15 77 7 141
-25 208 -16 36 -33 80 -37 98 -5 24 -34 62 -98 127 -50 50 -88 92 -84 92 4 0
31 -13 60 -30z m1667 -209 c66 -76 95 -126 49 -85 -31 27 -132 152 -161 199
-43 68 -42 93 1 29 23 -34 72 -98 111 -143z m-1195 125 c15 -27 23 -46 17 -42
-10 6 -62 93 -62 104 0 11 16 -12 45 -62z m1638 13 c14 -6 30 -22 36 -36 16
-36 13 -39 -10 -9 -41 52 -93 22 -87 -51 2 -23 0 -43 -4 -43 -10 0 -11 134 -1
143 10 10 39 8 66 -4z m-123 -14 c0 -8 -2 -15 -4 -15 -2 0 -6 7 -10 15 -3 8
-1 15 4 15 6 0 10 -7 10 -15z m-2014 -51 c20 -25 28 -49 30 -87 l4 -52 -14 45
c-11 35 -14 39 -16 20 -1 -20 -4 -16 -15 17 -7 24 -22 59 -34 78 -20 34 -20
35 -1 25 10 -6 31 -26 46 -46z m-1099 -6 c-12 -29 -27 -57 -34 -63 -7 -5 -17
-35 -22 -65 l-9 -55 -1 57 c-1 69 11 103 52 146 17 17 32 32 33 32 2 0 -7 -24
-19 -52z m898 -205 c-7 -29 -124 -122 -202 -162 -77 -38 -84 -39 -52 -3 75 81
204 276 242 365 11 26 12 17 15 -75 2 -56 0 -113 -3 -125z m-1780 -30 c57
-116 65 -139 37 -111 -8 8 -12 8 -12 1 0 -5 12 -22 26 -37 15 -14 21 -26 14
-26 -18 0 -120 103 -113 114 3 5 2 6 -4 3 -5 -3 -23 8 -40 26 -30 31 -31 36
-36 152 l-7 119 37 -59 c20 -33 64 -115 98 -182z m1048 147 c4 -62 3 -73 -3
-40 -9 46 -13 137 -6 129 2 -2 6 -42 9 -89z m2527 -48 c47 -29 108 -64 135
-78 28 -13 44 -24 36 -24 -17 0 -171 82 -223 119 -36 25 -78 86 -78 112 0 7
10 -7 23 -31 18 -36 39 -55 107 -98z m300 69 c14 -27 14 -28 -26 -29 -20 -1
-46 -4 -58 -7 -17 -5 -15 -1 9 20 17 14 36 23 43 20 7 -3 10 0 7 5 -3 6 -2 10
4 10 6 0 15 -9 21 -19z m-896 -81 c-7 -66 -6 -71 20 -96 30 -31 32 -50 11
-101 -18 -43 -38 -67 -80 -96 -28 -20 -29 -20 -15 -2 8 11 22 30 33 41 14 17
15 24 6 29 -8 5 -10 4 -5 -3 4 -7 2 -12 -4 -12 -7 0 -9 7 -5 18 3 9 9 31 12
47 6 30 5 29 -34 -15 -22 -25 -59 -55 -83 -67 -47 -26 -60 -29 -42 -11 7 7 12
20 12 31 0 11 4 15 12 11 6 -4 8 -3 5 3 -4 6 17 47 47 92 29 45 66 108 82 141
16 32 30 59 32 59 1 1 -1 -30 -4 -69z m988 -22 c50 -31 58 -44 58 -88 0 -15
12 -63 26 -105 17 -52 24 -90 21 -114 -5 -31 -4 -33 5 -13 6 12 14 22 18 22
18 0 26 -155 11 -209 -6 -22 -7 -21 -24 15 -20 42 -68 107 -102 139 -23 22
-65 79 -65 89 0 4 9 2 19 -4 27 -14 40 -12 20 3 -23 18 -31 48 -17 64 6 8 12
40 12 71 1 54 0 57 -22 55 -13 -2 -21 1 -17 6 3 5 0 13 -7 17 -7 4 -10 4 -6
-1 4 -4 -2 -17 -15 -27 l-22 -20 25 5 c14 2 18 2 10 -1 -12 -4 -11 -7 5 -14
16 -7 15 -7 -7 -3 -14 3 -28 2 -31 -3 -2 -4 -2 -2 -1 5 2 7 -1 15 -6 18 -6 4
-10 0 -10 -7 0 -10 -2 -10 -9 1 -6 9 -5 21 2 32 9 14 14 16 27 6 13 -10 13
-10 3 3 -12 17 -12 68 1 88 10 16 38 8 98 -30z m-3971 -15 c13 -16 12 -17 -3
-4 -17 13 -22 21 -14 21 2 0 10 -8 17 -17z m566 -163 c8 -30 18 -62 21 -70 5
-13 3 -13 -11 -2 -9 8 -24 35 -33 60 -23 62 -37 77 -29 30 7 -36 5 -40 -22
-37 -5 0 -11 -10 -14 -23 -6 -23 -6 -23 -18 5 -24 60 -3 143 47 184 l27 23 8
-58 c4 -31 15 -82 24 -112z m500 148 c-3 -8 -6 -5 -6 6 -1 11 2 17 5 13 3 -3
4 -12 1 -19z m1313 -79 c7 -25 7 -53 -1 -88 -12 -59 -29 -68 -29 -16 0 19 -4
35 -9 35 -5 0 -14 12 -19 28 l-10 27 -2 -25 c0 -14 -7 -34 -15 -44 -8 -11 -15
-28 -15 -37 0 -17 -17 -35 -25 -27 -3 2 4 26 14 54 10 27 22 82 26 122 l7 74
34 -33 c19 -18 39 -50 44 -70z m-3152 28 c12 -11 22 -31 22 -44 0 -25 -10 -29
-28 -11 -9 9 -12 7 -12 -10 0 -17 -6 -22 -25 -22 -23 0 -25 4 -25 45 0 42 -2
45 -27 45 -27 1 -27 1 -8 16 25 18 71 10 103 -19z m587 3 c-15 -28 -61 -59
-115 -75 -14 -4 -43 -16 -66 -27 -35 -16 -42 -25 -51 -63 -10 -42 -9 -45 11
-46 18 -1 18 -2 -6 -12 -14 -6 -34 -26 -44 -46 -10 -21 -31 -43 -51 -52 -18
-9 -33 -14 -33 -11 0 3 10 37 21 76 34 112 62 160 113 190 41 24 210 95 229
96 4 0 1 -13 -8 -30z m3456 4 c70 -17 174 -56 241 -90 50 -25 143 -103 134
-112 -3 -2 -27 9 -53 25 -26 16 -113 57 -193 91 -80 34 -167 74 -195 87 -53
27 -46 27 66 -1z m-112 -28 c98 -50 145 -85 166 -126 19 -36 56 -170 47 -170
-13 0 -72 40 -72 49 0 5 -17 16 -37 24 -36 15 -36 16 -10 16 54 1 27 48 -57
101 -61 38 -98 76 -125 128 -6 12 -9 22 -6 22 3 0 45 -20 94 -44z m655 -31
c-8 -13 -12 -30 -8 -37 4 -7 -1 -6 -11 3 -16 16 -16 18 1 37 26 28 38 27 18
-3z m136 -15 c0 -5 -4 -10 -10 -10 -5 0 -10 5 -10 10 0 6 5 10 10 10 6 0 10
-4 10 -10z m-3540 -32 c0 -13 3 -39 6 -59 l6 -35 -36 4 c-33 4 -37 1 -50 -29
-18 -44 -43 -174 -61 -319 l-14 -115 4 165 c4 166 16 271 36 323 11 25 82 87
101 87 4 0 8 -10 8 -22z m2101 -30 c19 -18 29 -41 38 -89 21 -121 31 -254 29
-399 l-1 -145 -8 90 c-12 124 -35 272 -61 388 -21 94 -23 97 -50 97 -27 0 -28
1 -28 55 l0 56 28 -15 c15 -8 39 -25 53 -38z m-3039 -16 c-43 -54 -139 -134
-147 -123 -9 15 -33 2 -41 -21 -4 -14 -9 -17 -13 -9 -5 8 -17 -3 -35 -29 -15
-22 -31 -38 -36 -35 -13 8 -57 -72 -96 -177 l-35 -93 6 73 c6 89 37 185 85
266 32 53 46 66 111 101 72 38 220 96 228 89 2 -2 -10 -21 -27 -42z m4376 3
c-3 -3 -9 2 -12 12 -6 14 -5 15 5 6 7 -7 10 -15 7 -18z m-13 -41 l60 -55 -64
46 c-35 25 -67 45 -72 45 -5 0 -9 5 -9 10 0 22 28 7 85 -46z m-2131 -19 c-21
-16 -201 -105 -252 -125 -24 -9 -39 -10 -55 -2 -12 6 -65 30 -117 55 -52 24
-102 52 -110 62 -8 10 -10 16 -5 14 6 -3 37 -18 70 -33 78 -37 162 -66 191
-66 21 0 194 69 259 102 35 19 47 14 19 -7z m1024 -75 c138 -69 223 -128 275
-191 41 -51 97 -153 97 -178 0 -9 15 -41 33 -71 38 -62 71 -143 66 -159 -2 -5
-29 26 -60 69 l-56 80 -6 -59 c-3 -33 -10 -67 -16 -78 -8 -14 -10 0 -10 63 1
58 -3 90 -16 115 -27 54 -222 239 -299 283 -37 22 -77 49 -88 61 -24 24 -59
125 -44 125 2 0 58 -27 124 -60z m-3312 -6 c-28 -82 -32 -79 112 -78 145 0
115 -14 -38 -18 -52 -1 -101 -7 -109 -12 -12 -9 -13 -5 -8 24 9 44 48 142 54
136 3 -3 -2 -26 -11 -52z m818 29 c-15 -65 -45 -113 -77 -126 -102 -43 -292
-206 -344 -295 -24 -41 -26 -49 -20 -140 6 -105 -4 -106 -23 -2 -18 96 -19 99
-32 75 -18 -35 -101 -155 -105 -152 -11 12 65 184 91 206 9 8 16 21 16 30 0 9
12 41 26 71 41 90 125 181 222 243 45 29 229 117 245 117 4 0 4 -12 1 -27z
m3256 -28 c116 -69 191 -141 223 -212 32 -73 57 -194 56 -270 -1 -56 -1 -57
-11 -23 -47 169 -82 255 -141 342 -40 59 -60 70 -54 28 l5 -29 -36 18 c-21 10
-44 27 -53 37 -21 24 -93 167 -82 163 5 -2 46 -26 93 -54z m479 -25 c17 -22
30 -40 28 -40 -2 0 -20 18 -40 40 -19 22 -32 40 -28 40 4 0 22 -18 40 -40z
m-5992 -37 c0 -9 -4 -10 -14 -2 -7 6 -13 12 -13 14 0 1 6 2 13 2 8 0 14 -6 14
-14z m5318 -3 c50 -5 98 -10 108 -10 11 0 17 -8 17 -21 0 -18 -2 -19 -14 -6
-10 10 -48 17 -113 21 -54 4 -110 9 -125 12 -40 8 -35 26 5 19 17 -3 73 -10
122 -15z m-3860 -72 c-3 -13 -7 -41 -9 -63 -7 -67 -18 -115 -27 -115 -5 0 -9
3 -9 8 0 19 30 174 35 182 11 17 16 11 10 -12z m3994 -104 c0 -48 -2 -85 -4
-83 -7 7 -14 140 -8 155 10 26 12 14 12 -72z m-24 36 c4 -6 -6 -10 -22 -9 -25
0 -26 1 -8 9 11 5 21 9 22 9 1 1 5 -3 8 -9z m35 -208 c0 -5 -13 -7 -30 -4 -16
2 -30 6 -30 8 0 2 14 4 30 4 17 0 30 -4 30 -8z m-6 -79 c7 -44 8 -118 1 -112
-2 3 -6 25 -9 49 -2 25 -9 57 -15 73 -8 21 -8 27 3 27 8 0 16 -16 20 -37z
m-4499 -112 l49 -6 103 -133 c137 -179 188 -237 383 -436 516 -527 1144 -964
1803 -1255 76 -34 142 -61 148 -61 21 0 251 105 407 186 767 399 1441 945
1926 1564 92 117 124 148 149 143 12 -2 69 12 127 31 57 19 106 33 109 30 10
-10 -225 -327 -385 -519 -129 -153 -445 -474 -594 -601 -259 -221 -583 -454
-869 -626 -173 -104 -580 -312 -759 -388 l-104 -44 -51 18 c-75 26 -281 118
-431 193 -567 283 -1100 666 -1542 1107 -203 203 -337 358 -518 601 -131 175
-176 240 -176 253 0 5 39 -4 88 -21 48 -16 109 -33 137 -36z m1702 -103 c-2
-29 -3 -8 -3 47 0 55 1 79 3 53 2 -26 2 -71 0 -100z m-938 66 c-6 -32 -24
-102 -40 -154 -16 -52 -37 -126 -46 -165 l-18 -70 -3 44 c-4 57 25 243 48 303
15 40 60 109 67 103 2 -1 -2 -28 -8 -61z m3490 -18 c24 -49 57 -213 65 -316
l5 -75 -15 50 c-8 28 -33 102 -55 165 -48 135 -67 208 -61 233 4 18 5 18 23 1
10 -9 27 -35 38 -58z m-1479 24 c-19 -5 -84 -13 -143 -19 -113 -11 -137 -22
-137 -61 0 -20 4 -22 50 -18 28 1 50 1 50 -2 0 -3 3 -15 6 -27 6 -23 5 -23
-85 -23 l-91 0 0 65 c0 51 -3 65 -15 65 -8 0 -15 -6 -15 -13 0 -9 -9 -12 -28
-9 -25 3 -28 0 -44 -50 -12 -40 -17 -46 -17 -25 -1 16 -7 27 -15 27 -10 0 -16
13 -18 37 -2 30 -8 38 -28 44 -14 3 34 4 105 2 72 -2 186 0 255 5 69 5 143 9
165 10 l40 0 -35 -8z m-600 -69 c0 -10 -9 -21 -20 -24 -16 -4 -19 0 -18 19 3
29 38 34 38 5z m217 -63 c-2 -13 -4 -3 -4 22 0 25 2 35 4 23 2 -13 2 -33 0
-45z m-114 -8 c3 -11 1 -20 -4 -20 -5 0 -9 9 -9 20 0 11 2 20 4 20 2 0 6 -9 9
-20z m-213 -12 c0 -6 -6 -5 -15 2 -8 7 -15 14 -15 16 0 2 7 1 15 -2 8 -4 15
-11 15 -16z m2070 -25 c0 -7 -39 17 -46 28 -3 6 5 3 20 -6 14 -10 26 -19 26
-22z m-1787 -10 c-7 -2 -19 -2 -25 0 -7 3 -2 5 12 5 14 0 19 -2 13 -5z m276
-3 c-28 -16 -124 -23 -196 -14 -68 9 -68 9 62 14 72 3 135 7 140 8 6 1 3 -3
-6 -8z m-912 -52 c-3 -7 -5 -2 -5 12 0 14 2 19 5 13 2 -7 2 -19 0 -25z m508
22 c3 -6 -1 -7 -9 -4 -18 7 -21 14 -7 14 6 0 13 -4 16 -10z m402 -306 c-3 -3
-12 -4 -19 -1 -8 3 -5 6 6 6 11 1 17 -2 13 -5z m-120 -20 c-3 -3 -12 -4 -19
-1 -8 3 -5 6 6 6 11 1 17 -2 13 -5z m-177 -129 c69 -19 139 -35 155 -35 17 0
89 16 160 35 72 19 133 35 138 35 4 0 7 -198 7 -441 l0 -440 -126 -60 c-69
-33 -137 -62 -152 -65 -28 -6 -122 30 -249 95 l-63 31 0 440 c0 242 1 440 3
440 1 0 58 -16 127 -35z"/>
<path d="M5405 4483 c-57 -12 -195 -57 -195 -63 0 -4 7 -21 15 -36 8 -16 15
-39 15 -52 0 -26 -10 -27 138 4 45 9 82 21 82 25 0 5 -9 13 -20 19 -28 15 -25
30 8 30 15 0 34 5 42 10 11 7 2 9 -30 5 l-45 -6 29 16 c15 9 37 15 47 12 13
-4 19 0 19 13 0 25 -47 36 -105 23z m-72 -140 c-7 -2 -19 -2 -25 0 -7 3 -2 5
12 5 14 0 19 -2 13 -5z"/>
<path d="M5071 3980 c-52 -24 -51 -32 4 -20 53 12 157 12 189 0 36 -13 32 -4
-6 20 -44 26 -128 26 -187 0z"/>
<path d="M5098 3909 c-10 -5 -18 -14 -18 -19 0 -11 101 -13 149 -4 29 6 30 8
14 20 -21 16 -120 18 -145 3z"/>
<path d="M3610 4680 c-8 -5 -10 -10 -5 -10 6 0 17 5 25 10 8 5 11 10 5 10 -5
0 -17 -5 -25 -10z"/>
<path d="M3573 4501 c-45 -28 -41 -41 10 -41 l42 -1 -27 -15 c-36 -19 -37 -44
-2 -44 15 0 43 -5 63 -11 23 -7 49 -8 71 -2 31 8 35 14 46 63 7 30 10 57 8 59
-3 3 -44 7 -92 9 -74 3 -92 0 -119 -17z m145 -98 c2 -8 -6 -13 -22 -13 -26 0
-40 12 -29 24 11 11 46 2 51 -11z"/>
<path d="M3766 4204 c-24 -24 -19 -34 17 -35 17 0 42 -2 54 -5 12 -2 31 0 43
4 19 7 19 9 4 30 -18 26 -49 29 -62 6 -8 -15 -10 -15 -15 0 -8 20 -21 20 -41
0z"/>
<path d="M3738 4082 c-39 -24 -35 -32 10 -16 48 17 66 17 130 0 60 -15 70 -4
16 19 -48 20 -122 19 -156 -3z"/>
<path d="M3761 4017 c-42 -21 -23 -32 59 -33 71 -2 80 0 80 16 0 30 -92 41
-139 17z"/>
<path d="M3758 3863 c7 -3 16 -2 19 1 4 3 -2 6 -13 5 -11 0 -14 -3 -6 -6z"/>
<path d="M6494 3976 c-18 -8 -35 -19 -39 -26 -5 -9 -1 -8 16 1 13 7 57 13 97
13 60 1 70 3 55 14 -22 16 -90 15 -129 -2z"/>
<path d="M6497 3913 c-15 -14 -5 -21 39 -27 51 -7 98 9 73 25 -16 10 -103 12
-112 2z"/>
</g>
</svg>
