<?xml version="1.0" standalone="no"?>
<!DOCTYPE svg PUBLIC "-//W3C//DTD SVG 20010904//EN"
 "http://www.w3.org/TR/2001/REC-SVG-20010904/DTD/svg10.dtd">
<svg version="1.0" xmlns="http://www.w3.org/2000/svg"
 width="1024.000000pt" height="1024.000000pt" viewBox="0 0 1024.000000 1024.000000"
 preserveAspectRatio="xMidYMid meet">
<metadata>
Created by potrace 1.14, written by Peter Selinger 2001-2017
</metadata>
<g transform="translate(0.000000,1024.000000) scale(0.100000,-0.100000)"
fill="#000000" stroke="none">
<path d="M4858 10236 c-1 -2 -50 -6 -108 -10 -58 -3 -116 -8 -130 -11 -14 -2
-50 -6 -80 -9 -70 -6 -123 -14 -235 -32 -195 -32 -207 -35 -510 -108 -39 -10
-109 -30 -160 -46 -33 -11 -82 -27 -110 -35 -71 -23 -214 -74 -252 -91 -17 -8
-35 -14 -40 -14 -4 -1 -26 -9 -48 -20 -22 -11 -43 -19 -47 -20 -40 -2 -610
-293 -659 -336 -9 -8 -19 -11 -22 -7 -4 3 -7 1 -7 -5 0 -7 -4 -12 -9 -12 -8 0
-188 -118 -323 -211 -54 -38 -123 -93 -126 -101 -2 -5 -10 -8 -17 -8 -8 0 -18
-6 -22 -13 -4 -6 -26 -25 -48 -42 -21 -16 -47 -36 -56 -45 -9 -8 -40 -35 -69
-60 -94 -80 -140 -123 -268 -250 -134 -133 -214 -219 -322 -350 -19 -23 -40
-47 -46 -53 -5 -7 -49 -64 -97 -127 -48 -63 -91 -119 -95 -125 -37 -48 -206
-310 -254 -395 -14 -25 -42 -74 -63 -110 -95 -166 -237 -478 -320 -705 -20
-55 -39 -107 -42 -115 -3 -8 -7 -19 -9 -25 -2 -5 -19 -62 -39 -125 -19 -63
-37 -122 -39 -130 -40 -156 -66 -262 -71 -290 -3 -19 -10 -51 -15 -70 -5 -19
-11 -53 -15 -75 -3 -23 -8 -52 -10 -65 -5 -22 -16 -95 -30 -195 -3 -16 -7 -57
-10 -90 -3 -33 -8 -69 -10 -80 -26 -127 -27 -797 0 -1011 3 -22 7 -57 9 -79
14 -119 21 -166 52 -335 54 -296 86 -421 179 -705 31 -94 114 -316 135 -360 5
-11 19 -42 30 -70 30 -69 184 -380 216 -435 14 -25 53 -90 86 -145 33 -55 65
-109 71 -120 7 -11 14 -22 17 -25 3 -3 32 -45 65 -95 58 -88 238 -330 290
-390 14 -16 47 -55 73 -85 119 -139 310 -333 442 -450 47 -41 87 -77 90 -80 5
-5 114 -96 140 -117 8 -7 60 -46 115 -88 55 -41 105 -78 110 -83 30 -23 229
-154 285 -188 36 -21 67 -41 70 -44 3 -3 21 -13 40 -24 19 -10 51 -28 70 -39
60 -35 331 -171 410 -205 41 -19 89 -40 105 -47 82 -37 372 -145 435 -160 3
-1 12 -5 20 -8 12 -5 99 -31 145 -43 106 -29 247 -65 270 -69 17 -3 37 -8 45
-10 8 -2 31 -7 50 -10 19 -3 42 -8 50 -10 8 -2 29 -6 45 -9 17 -3 71 -12 120
-20 91 -16 127 -21 225 -31 30 -4 71 -8 90 -10 227 -26 860 -26 997 -1 10 2
50 7 88 10 39 4 80 8 90 10 11 2 43 7 70 10 28 4 73 11 100 16 28 5 64 12 80
15 473 77 1115 307 1559 559 54 31 100 56 103 56 5 0 92 56 263 168 163 108
381 274 510 388 157 140 331 311 440 434 36 40 72 80 80 89 8 9 33 39 55 66
22 28 42 52 45 55 9 9 124 156 140 180 8 12 41 57 73 101 31 43 57 81 57 84 0
3 5 11 10 18 6 7 26 37 45 67 19 30 38 60 43 65 4 6 48 80 96 165 236 414 407
842 526 1310 12 47 24 97 26 113 1 15 6 31 8 36 3 5 8 26 11 47 3 22 8 45 11
53 2 8 7 30 10 50 3 20 9 61 14 91 19 111 26 164 36 255 3 33 7 71 10 85 25
162 25 824 -1 1005 -2 17 -6 55 -10 85 -6 58 -41 298 -50 340 -80 396 -159
666 -290 991 -67 164 -193 431 -261 550 -20 35 -45 80 -56 99 -90 159 -278
439 -379 564 -5 6 -24 29 -41 52 -76 94 -104 129 -128 154 -14 15 -47 53 -75
85 -119 137 -364 374 -535 514 -14 11 -32 27 -40 34 -8 7 -53 42 -100 78 -47
35 -86 67 -88 72 -2 4 -10 7 -17 7 -7 0 -15 4 -17 8 -1 4 -32 28 -68 52 -36
25 -69 49 -75 53 -15 12 -103 68 -206 132 -329 203 -806 417 -1179 527 -284
84 -681 166 -885 183 -22 2 -65 6 -95 10 -30 3 -77 8 -105 11 -56 6 -651 14
-657 10z"/>
</g>
</svg>
